# xmcd CD database file
#
# Track frame offsets:
#	150
#	17957
#	41307
#	52232
#	78987
#	94622
#	123337
#	137877
#	160135
#	172562
#
# Disc length: 2707 seconds
#
# Revision: 1
# Processed by: cddbd v1.4PL0 Copyright (c) Steve Scherf et al.
# Submitted via: CDex 1.40Release
#
DISCID=750a910a
DTITLE=Big Al Dupree - Swings the Blues
DYEAR=1995
DGENRE=Blues
TTITLE0=Wee Baby Blues
TTITLE1=Got a Midn to Ramble
TTITLE2=Early This Morning
TTITLE3=Nosey Woman
TTITLE4=Sheik of Araby
TTITLE5=T-Bone Blues
TTITLE6=Sent for You Yesterday
TTITLE7=Cherry Red
TTITLE8=How 'Bout That?
TTITLE9=Juice Head Baby
EXTD=YEAR: 1995 ID3G: 0
EXTT0=
EXTT1=
EXTT2=
EXTT3=
EXTT4=
EXTT5=
EXTT6=
EXTT7=
EXTT8=
EXTT9=
PLAYORDER=
